<svg width="17" height="20" viewBox="0 0 17 20" fill="none" xmlns="http://www.w3.org/2000/svg">
<path d="M15.8334 8.33337C15.8334 14.1667 8.33337 19.1667 8.33337 19.1667C8.33337 19.1667 0.833374 14.1667 0.833374 8.33337C0.833374 6.34425 1.62355 4.4366 3.03007 3.03007C4.4366 1.62355 6.34425 0.833374 8.33337 0.833374C10.3225 0.833374 12.2302 1.62355 13.6367 3.03007C15.0432 4.4366 15.8334 6.34425 15.8334 8.33337Z" stroke="#717680" stroke-width="1.66667" stroke-linecap="round" stroke-linejoin="round"/>
<path d="M8.33337 10.8334C9.71409 10.8334 10.8334 9.71409 10.8334 8.33337C10.8334 6.95266 9.71409 5.83337 8.33337 5.83337C6.95266 5.83337 5.83337 6.95266 5.83337 8.33337C5.83337 9.71409 6.95266 10.8334 8.33337 10.8334Z" stroke="#717680" stroke-width="1.66667" stroke-linecap="round" stroke-linejoin="round"/>
</svg>

