<svg width="12" height="11" viewBox="0 0 12 11" fill="none" xmlns="http://www.w3.org/2000/svg">
<path d="M5.97401 3.80137V5.80137M5.97401 7.80137H5.97901M5.11901 1.23137L0.884009 8.30137C0.796693 8.45258 0.750493 8.62402 0.750004 8.79863C0.749515 8.97324 0.794755 9.14494 0.881223 9.29663C0.967691 9.44833 1.09237 9.57475 1.24286 9.6633C1.39335 9.75185 1.56441 9.79945 1.73901 9.80137H10.209C10.3836 9.79945 10.5547 9.75185 10.7052 9.6633C10.8556 9.57475 10.9803 9.44833 11.0668 9.29663C11.1533 9.14494 11.1985 8.97324 11.198 8.79863C11.1975 8.62402 11.1513 8.45258 11.064 8.30137L6.82901 1.23137C6.73987 1.08443 6.61437 0.962932 6.46461 0.878614C6.31484 0.794296 6.14588 0.75 5.97401 0.75C5.80214 0.75 5.63317 0.794296 5.48341 0.878614C5.33365 0.962932 5.20814 1.08443 5.11901 1.23137Z" stroke="#F79009" stroke-width="1.5" stroke-linecap="round" stroke-linejoin="round"/>
</svg>
