<svg width="20" height="20" viewBox="0 0 20 20" fill="none" xmlns="http://www.w3.org/2000/svg">
<path d="M5.5 0.375H13.5C13.5606 0.375 13.6183 0.399533 13.6611 0.442383L19.0576 5.83887C19.1005 5.88173 19.125 5.93939 19.125 6V18C19.125 18.8975 18.3975 19.625 17.5 19.625H5.5C4.60254 19.625 3.875 18.8975 3.875 18V2C3.875 1.10254 4.60254 0.375 5.5 0.375Z" stroke="#D5D7DA" stroke-width="0.75"/>
<path d="M13.5 0.25V4C13.5 5.10457 14.3954 6 15.5 6H19.25" stroke="#D5D7DA" stroke-width="0.75"/>
<rect x="0.5" y="9" width="17" height="8" rx="1" fill="#444CE7"/>
<path d="M3.91411 11.3636H4.67405V13.8991C4.67405 14.1335 4.62137 14.3371 4.51602 14.5099C4.41186 14.6828 4.26685 14.8159 4.08101 14.9094C3.89517 15.003 3.67914 15.0497 3.43293 15.0497C3.21394 15.0497 3.01508 15.0112 2.83634 14.9343C2.65878 14.8562 2.51792 14.7378 2.41375 14.5792C2.30959 14.4194 2.25809 14.2187 2.25928 13.9773H3.02455C3.02691 14.0732 3.04645 14.1554 3.08314 14.2241C3.12102 14.2915 3.17251 14.3436 3.23762 14.3803C3.3039 14.4158 3.38203 14.4336 3.47199 14.4336C3.56669 14.4336 3.64659 14.4135 3.71169 14.3732C3.77798 14.3318 3.82829 14.2714 3.86262 14.1921C3.89694 14.1128 3.91411 14.0152 3.91411 13.8991V11.3636ZM7.28236 12.4094C7.26816 12.2662 7.20719 12.1549 7.09948 12.0756C6.99176 11.9963 6.84557 11.9567 6.66091 11.9567C6.53544 11.9567 6.4295 11.9744 6.34308 12.0099C6.25667 12.0443 6.19039 12.0922 6.14422 12.1538C6.09924 12.2153 6.07675 12.2852 6.07675 12.3633C6.07438 12.4284 6.08799 12.4852 6.11759 12.5337C6.14836 12.5823 6.19039 12.6243 6.24365 12.6598C6.29692 12.6941 6.35847 12.7243 6.42831 12.7504C6.49815 12.7752 6.57272 12.7965 6.65203 12.8143L6.97874 12.8924C7.13736 12.9279 7.28295 12.9753 7.41553 13.0344C7.5481 13.0936 7.66292 13.1664 7.75999 13.2528C7.85705 13.3393 7.93222 13.4411 7.98548 13.5582C8.03994 13.6754 8.06775 13.8098 8.06894 13.9613C8.06775 14.1838 8.01093 14.3768 7.89848 14.5401C7.78721 14.7023 7.62623 14.8284 7.41553 14.9183C7.20601 15.0071 6.95329 15.0515 6.65736 15.0515C6.3638 15.0515 6.10812 15.0065 5.89031 14.9165C5.67369 14.8266 5.50442 14.6934 5.3825 14.517C5.26176 14.3395 5.19843 14.1199 5.19252 13.8583H5.93648C5.94477 13.9802 5.97968 14.082 6.04124 14.1637C6.10397 14.2442 6.18743 14.3052 6.29159 14.3466C6.39694 14.3868 6.51591 14.407 6.64848 14.407C6.77869 14.407 6.89173 14.388 6.98762 14.3501C7.08468 14.3123 7.15985 14.2596 7.21311 14.1921C7.26638 14.1246 7.29301 14.0471 7.29301 13.9595C7.29301 13.8778 7.26875 13.8092 7.22021 13.7536C7.17287 13.6979 7.10303 13.6506 7.0107 13.6115C6.91955 13.5724 6.80769 13.5369 6.67512 13.505L6.27916 13.4055C5.97258 13.331 5.73051 13.2144 5.55296 13.0558C5.3754 12.8971 5.28721 12.6835 5.2884 12.4148C5.28721 12.1946 5.34581 12.0022 5.46418 11.8377C5.58373 11.6732 5.74768 11.5447 5.95601 11.4524C6.16434 11.3601 6.40109 11.3139 6.66624 11.3139C6.93612 11.3139 7.17168 11.3601 7.37291 11.4524C7.57533 11.5447 7.73276 11.6732 7.84521 11.8377C7.95767 12.0022 8.01567 12.1928 8.01922 12.4094H7.28236ZM11.9277 13.1818C11.9277 13.5784 11.8525 13.9157 11.7022 14.1939C11.553 14.4721 11.3494 14.6845 11.0914 14.8313C10.8345 14.9769 10.5457 15.0497 10.2249 15.0497C9.90177 15.0497 9.61176 14.9763 9.35489 14.8295C9.09803 14.6828 8.89502 14.4703 8.74587 14.1921C8.59672 13.9139 8.52215 13.5772 8.52215 13.1818C8.52215 12.7853 8.59672 12.4479 8.74587 12.1697C8.89502 11.8916 9.09803 11.6797 9.35489 11.5341C9.61176 11.3873 9.90177 11.3139 10.2249 11.3139C10.5457 11.3139 10.8345 11.3873 11.0914 11.5341C11.3494 11.6797 11.553 11.8916 11.7022 12.1697C11.8525 12.4479 11.9277 12.7853 11.9277 13.1818ZM11.1482 13.1818C11.1482 12.925 11.1097 12.7083 11.0328 12.532C10.957 12.3556 10.8499 12.2218 10.7114 12.1307C10.5729 12.0395 10.4108 11.994 10.2249 11.994C10.0391 11.994 9.87691 12.0395 9.73841 12.1307C9.59992 12.2218 9.4922 12.3556 9.41526 12.532C9.3395 12.7083 9.30162 12.925 9.30162 13.1818C9.30162 13.4387 9.3395 13.6553 9.41526 13.8317C9.4922 14.008 9.59992 14.1418 9.73841 14.233C9.87691 14.3241 10.0391 14.3697 10.2249 14.3697C10.4108 14.3697 10.5729 14.3241 10.7114 14.233C10.8499 14.1418 10.957 14.008 11.0328 13.8317C11.1097 13.6553 11.1482 13.4387 11.1482 13.1818ZM15.5388 11.3636V15H14.8747L13.2927 12.7113H13.266V15H12.4972V11.3636H13.1719L14.7415 13.6506H14.7735V11.3636H15.5388Z" fill="white"/>
</svg>
